<svg xmlns="http://www.w3.org/2000/svg" width="512" height="512" viewBox="0 0 512 512">
<g>
<path d="M 259.24,403.91 L 256.07,404.00 L 256.00,404.00 M 259.67,403.90 L 259.64,403.90 L 260.97,403.76 M 261.48,403.70 L 261.47,403.70 L 262.20,403.50 M 262.22,403.49 L 262.21,403.50 L 262.63,403.35 M 246.97,402.23 L 247.67,402.62 L 248.85,403.20 L 248.47,403.08 L 247.89,402.88 L 246.97,402.37 L 246.86,402.29 L 246.34,401.85 L 246.04,401.58 L 245.97,401.52 M 265.75,401.73 L 265.75,401.73 L 266.60,401.10 M 267.33,400.48 L 267.30,400.51 L 267.80,400.05 M 268.09,399.78 L 268.03,399.84 L 268.46,399.44 M 268.61,399.30 L 268.55,399.36 L 268.63,399.28 M 132.11,286.76 L 132.40,287.14 L 133.05,287.95 L 133.48,288.45 L 134.40,289.52 L 134.97,290.16 L 136.17,291.49 L 136.87,292.26 L 138.35,293.86 L 139.19,294.76 L 140.95,296.64 L 141.94,297.68 L 143.98,299.83 L 145.12,301.01 L 147.45,303.44 L 148.73,304.76 L 151.36,307.47 L 152.79,308.94 L 155.72,311.94 L 157.30,313.55 L 160.53,316.84 L 162.27,318.60 L 165.81,322.20 L 167.70,324.10 L 171.40,327.85 L 170.25,326.70 L 167.03,323.47 L 160.94,317.34 L 157.96,314.34 L 152.52,308.85 L 151.21,307.52 L 148.75,305.02 L 147.54,303.80 L 145.31,301.53 L 144.23,300.42 L 142.25,298.40 L 141.30,297.43 L 139.60,295.68 L 138.79,294.85 L 137.41,293.40 L 136.75,292.72 L 135.70,291.61 L 135.22,291.09 L 134.52,290.33 L 133.90,289.60 L 133.34,288.85 L 132.50,287.50 L 132.13,286.83 L 132.09,286.74 M 280.95,121.51 L 281.05,123.53 L 281.10,124.60 L 281.19,127.17 L 281.23,128.53 L 281.31,131.72 L 281.35,133.41 L 281.42,137.31 L 281.45,139.35 L 281.51,144.03 L 281.54,146.48 L 281.60,152.02 L 281.63,154.91 L 281.68,161.39 L 281.71,164.76 L 281.76,172.26 L 281.77,174.20 L 281.80,178.29 L 281.81,180.36 L 281.84,184.73 L 281.85,186.95 L 281.88,191.62 L 281.89,193.98 L 281.92,198.94 L 281.93,201.46 L 281.96,206.73 L 282.00,215.00 L 282.50,312.50 L 282.68,312.32 L 282.50,312.50 L 282.00,215.00 L 281.88,195.38 L 281.79,182.87 L 281.74,177.00 L 281.68,171.20 L 281.66,168.40 L 281.60,162.90 L 281.57,160.27 L 281.51,155.11 L 281.48,152.66 L 281.42,147.86 L 281.39,145.61 L 281.33,141.21 L 281.29,139.17 L 281.23,135.21 L 281.20,133.41 L 281.13,129.92 L 281.10,128.36 L 281.03,125.38 L 281.00,124.08 L 280.94,121.64 L 280.91,120.98 M 229.72,312.17 L 229.71,312.20 L 216.05,298.56 M 261.94,108.04 L 261.95,108.04 L 261.58,108.04 L 259.58,108.05 L 258.37,108.07 L 255.79,108.13 L 254.24,108.17 L 249.28,108.35 L 246.46,108.52 L 245.26,108.64 L 243.00,108.91 L 242.05,109.09 L 240.27,109.47 L 239.53,109.72 L 238.15,110.26 L 237.58,110.59 L 236.51,111.30 L 236.06,111.74 L 235.22,112.65 L 234.86,113.20 L 234.18,114.35 L 233.86,115.02 L 233.36,116.64 L 233.22,117.44 L 233.15,117.94 L 233.02,119.02 L 232.96,119.69 L 232.85,121.13 L 232.79,122.00 L 232.69,123.85 L 232.64,124.96 L 232.55,127.29 L 232.51,128.66 L 232.43,131.55 L 232.39,133.22 L 232.31,136.72 L 232.28,138.72 L 232.21,142.90 L 232.18,145.27 L 232.12,150.19 L 232.09,152.96 L 232.03,158.69 L 232.00,161.89 L 231.94,168.50 L 231.91,172.16 L 231.85,179.72 L 231.82,183.87 L 231.79,188.09 L 231.78,190.30 L 231.75,194.78 L 231.73,197.12 L 231.70,201.87 L 231.69,204.35 L 231.66,209.38 L 231.64,212.01 L 231.51,230.86 L 231.41,242.90 L 231.36,248.57 L 231.31,254.18 L 231.28,256.88 L 231.23,262.21 L 231.20,264.76 L 231.15,269.78 L 231.12,272.16 L 231.06,276.83 L 231.03,279.02 L 230.98,283.31 L 230.95,285.30 L 230.89,289.18 L 230.86,290.96 L 230.81,294.39 L 230.78,295.93 L 230.72,298.88 L 230.70,300.17 L 230.64,302.62 L 230.61,303.63 L 230.56,305.53 L 230.53,306.27 L 230.48,307.59 L 230.46,308.02 L 230.41,308.73 L 230.39,308.85 L 230.00,310.76 L 230.00,212.28 L 230.00,205.90 L 230.00,202.77 L 230.00,196.81 L 230.00,193.89 L 230.00,188.34 L 230.00,185.62 L 230.00,180.46 L 230.00,177.93 L 230.00,173.15 L 230.01,170.81 L 230.01,166.40 L 230.02,164.23 L 230.03,160.17 L 230.04,158.17 L 230.05,154.44 L 230.06,152.61 L 230.08,149.19 L 230.10,147.52 L 230.13,144.41 L 230.14,142.89 L 230.18,140.06 L 230.20,138.68 L 230.25,136.13 L 230.30,133.64 L 230.43,129.41 L 230.50,127.41 L 230.67,124.08 L 230.77,122.52 L 231.00,119.96 L 231.12,118.77 L 231.42,116.88 L 231.57,116.00 L 231.93,114.64 L 232.13,114.01 L 232.56,113.07 L 233.02,112.20 L 234.20,111.21 L 236.42,109.89 L 237.09,109.48 L 238.58,108.90 L 239.00,108.78 L 239.99,108.57 L 240.52,108.48 L 241.80,108.33 L 242.48,108.27 L 244.14,108.17 L 245.03,108.13 L 247.16,108.07 L 248.30,108.04 L 251.00,108.02 L 255.80,108.00 L 258.08,108.00 M 350.78,250.05 L 353.50,250.43 L 354.21,250.57 L 355.72,251.19 L 356.50,251.58 L 358.35,252.84 L 358.84,253.20 L 359.93,254.08 L 360.49,254.54 L 361.74,255.63 L 362.39,256.20 L 363.84,257.53 L 366.25,259.81 L 367.79,261.29 L 370.42,263.88 L 371.66,265.12 L 373.75,267.29 L 374.73,268.33 L 376.33,270.16 L 377.07,271.04 L 378.24,272.63 L 378.78,273.40 L 379.58,274.81 L 379.94,275.51 L 380.43,276.84 L 381.00,280.93 L 381.00,282.23 L 380.53,284.93 L 380.38,285.57 L 380.01,286.70 L 379.37,288.03 L 379.29,288.14 L 378.85,288.66 L 378.58,288.96 L 378.41,289.15 L 378.79,284.57 L 378.95,281.29 L 378.92,279.31 L 378.83,278.40 L 378.58,276.62 L 378.37,275.79 L 377.87,274.14 L 377.51,273.34 L 376.73,271.74 L 376.22,270.93 L 375.11,269.30 L 374.43,268.45 L 372.97,266.71 L 372.09,265.77 L 370.24,263.85 L 369.16,262.79 L 365.53,259.42 L 363.30,257.53 L 362.28,256.77 L 360.31,255.37 L 359.43,254.85 L 357.72,253.93 L 356.97,253.65 L 352.99,252.37 L 350.62,251.89 L 349.47,251.90 L 347.15,252.13 L 345.90,252.58 L 344.62,253.09 L 343.95,253.44 L 342.56,254.21 L 341.80,254.71 L 340.26,255.77 L 339.41,256.42 L 337.66,257.79 L 336.70,258.61 L 334.72,260.33 L 333.62,261.32 L 331.36,263.41 L 330.11,264.60 L 327.52,267.08 L 326.10,268.48 L 324.79,269.77 L 327.39,267.18 L 328.75,265.83 L 331.20,263.43 L 332.38,262.28 L 334.51,260.25 L 335.53,259.28 L 337.37,257.59 L 338.25,256.78 L 339.84,255.41 L 340.61,254.76 L 341.98,253.67 L 342.64,253.15 L 343.83,252.32 L 344.41,251.93 L 345.46,251.33 L 346.48,250.78 L 348.25,250.24 L 349.11,250.04 M 163.44,250.17 L 164.27,250.34 L 166.12,251.17 L 166.61,251.42 L 167.69,252.10 L 168.25,252.47 L 169.49,253.40 L 170.13,253.89 L 171.58,255.09 L 172.33,255.72 L 174.02,257.22 L 174.90,258.01 L 176.87,259.84 L 177.89,260.80 L 180.18,263.00 L 181.37,264.14 L 184.02,266.73 L 185.39,268.07 L 188.44,271.08 L 190.01,272.64 L 193.49,276.10 L 193.70,276.31 L 190.89,273.55 L 189.08,271.78 L 185.53,268.34 L 183.88,266.75 L 180.67,263.68 L 179.22,262.32 L 176.44,259.71 L 175.24,258.61 L 172.98,256.55 L 172.07,255.75 L 170.42,254.31 L 169.84,253.85 L 169.32,253.44 L 169.12,253.30 L 168.78,253.08 L 168.68,253.05 L 164.78,252.12 L 162.02,251.94 L 160.65,252.06 L 157.93,252.43 L 156.67,252.82 L 154.25,253.73 L 153.23,254.38 L 149.12,257.44 L 146.37,259.90 L 145.04,261.28 L 142.40,264.12 L 141.16,265.62 L 138.76,268.67 L 137.68,270.21 L 135.64,273.28 L 134.79,274.77 L 133.22,277.69 L 132.65,279.04 L 131.69,281.64 L 131.48,282.75 L 131.31,283.84 L 131.30,284.32 L 131.30,284.38 L 131.14,283.45 L 131.00,281.00 L 131.00,279.53 L 131.57,276.88 L 131.78,276.21 L 132.41,274.84 L 132.77,274.14 L 133.74,272.65 L 134.28,271.88 L 135.65,270.18 L 136.39,269.30 L 138.23,267.30 L 139.21,266.26 L 141.57,263.89 L 145.75,259.81 L 146.59,259.01 L 148.11,257.59 L 148.84,256.91 L 150.17,255.71 L 151.46,254.57 L 153.57,252.91 L 154.56,252.18 L 156.20,251.23 L 158.32,250.47 L 159.30,250.28 L 161.00,250.06 L 161.83,249.99 M 263.76,108.07 L 266.80,108.20 L 268.23,108.27 L 270.58,108.51 L 271.68,108.65 L 273.46,109.04 L 274.29,109.26 L 275.63,109.84 L 276.25,110.15 L 277.27,110.94 L 277.75,111.36 L 278.58,112.40 L 279.73,114.27 L 279.94,114.64 L 280.08,115.08 L 279.77,114.74 L 278.78,113.96 L 278.12,113.52 L 276.71,112.62 L 275.90,112.17 L 274.23,111.27 L 273.35,110.86 L 271.26,109.89 L 270.05,109.36 L 269.49,109.15 L 267.34,108.46 L 266.12,108.29 L 264.84,108.15 L 264.10,108.11 L 262.86,108.06 Z" fill="rgba(255,60,60,1)"/>
<path d="M 245.40,401.11 L 245.27,401.01 L 244.72,400.53 L 244.40,400.24 L 243.50,399.41 L 243.01,398.95 L 241.77,397.77 L 241.12,397.15 L 239.57,395.66 L 238.76,394.87 L 236.92,393.09 L 235.96,392.16 L 233.85,390.09 L 232.76,389.03 L 230.40,386.70 L 229.18,385.51 L 226.58,382.95 L 225.26,381.64 L 222.44,378.86 L 221.01,377.45 L 218.00,374.47 L 214.95,371.45 L 208.36,364.89 L 204.99,361.53 L 197.88,354.44 L 186.82,343.36 L 184.45,340.99 L 179.96,336.48 L 177.76,334.26 L 173.59,330.06 L 171.55,328.00 L 167.70,324.10 L 165.81,322.20 L 162.27,318.60 L 160.53,316.84 L 157.30,313.55 L 155.72,311.94 L 152.79,308.94 L 151.36,307.47 L 148.73,304.76 L 147.45,303.44 L 145.12,301.01 L 143.98,299.83 L 141.94,297.68 L 140.95,296.64 L 139.19,294.76 L 138.35,293.86 L 136.87,292.26 L 136.17,291.49 L 134.97,290.16 L 134.40,289.52 L 133.48,288.45 L 133.05,287.95 L 132.40,287.14 L 132.11,286.76 L 131.72,286.20 L 131.43,285.65 L 131.33,285.25 L 131.30,284.32 L 131.31,283.84 L 131.48,282.75 L 131.69,281.64 L 132.65,279.04 L 133.22,277.69 L 134.79,274.77 L 135.64,273.28 L 137.68,270.21 L 138.76,268.67 L 141.16,265.62 L 142.40,264.12 L 145.04,261.28 L 146.37,259.90 L 149.12,257.44 L 153.23,254.38 L 154.25,253.73 L 156.67,252.82 L 157.93,252.43 L 160.65,252.06 L 162.02,251.94 L 164.78,252.12 L 168.68,253.05 L 168.78,253.08 L 169.12,253.30 L 169.32,253.44 L 169.84,253.85 L 170.42,254.31 L 172.07,255.75 L 172.98,256.55 L 175.24,258.61 L 176.44,259.71 L 179.22,262.32 L 180.67,263.68 L 183.88,266.75 L 185.53,268.34 L 189.08,271.78 L 190.89,273.55 L 194.70,277.29 L 200.61,283.15 L 229.71,312.20 L 230.39,308.85 L 230.41,308.73 L 230.46,308.02 L 230.48,307.59 L 230.53,306.27 L 230.56,305.53 L 230.61,303.63 L 230.64,302.62 L 230.70,300.17 L 230.72,298.88 L 230.78,295.93 L 230.81,294.39 L 230.86,290.96 L 230.89,289.18 L 230.95,285.30 L 230.98,283.31 L 231.03,279.02 L 231.06,276.83 L 231.12,272.16 L 231.15,269.78 L 231.20,264.76 L 231.23,262.21 L 231.28,256.88 L 231.31,254.18 L 231.36,248.57 L 231.41,242.90 L 231.51,230.86 L 231.64,212.01 L 231.66,209.38 L 231.69,204.35 L 231.70,201.87 L 231.73,197.12 L 231.75,194.78 L 231.78,190.30 L 231.79,188.09 L 231.82,183.87 L 231.85,179.72 L 231.91,172.16 L 231.94,168.50 L 232.00,161.89 L 232.03,158.69 L 232.09,152.96 L 232.12,150.19 L 232.18,145.27 L 232.21,142.90 L 232.28,138.72 L 232.31,136.72 L 232.39,133.22 L 232.43,131.55 L 232.51,128.66 L 232.55,127.29 L 232.64,124.96 L 232.69,123.85 L 232.79,122.00 L 232.85,121.13 L 232.96,119.69 L 233.02,119.02 L 233.15,117.94 L 233.22,117.44 L 233.36,116.64 L 233.86,115.02 L 234.18,114.35 L 234.86,113.20 L 235.22,112.65 L 236.06,111.74 L 236.51,111.30 L 237.58,110.59 L 238.15,110.26 L 239.53,109.72 L 240.27,109.47 L 242.05,109.09 L 243.00,108.91 L 245.26,108.64 L 246.46,108.52 L 249.28,108.35 L 254.24,108.17 L 255.79,108.13 L 258.37,108.07 L 259.58,108.05 L 261.58,108.04 L 262.53,108.05 L 264.10,108.11 L 264.84,108.15 L 266.12,108.29 L 267.34,108.46 L 269.49,109.15 L 270.05,109.36 L 271.26,109.89 L 273.35,110.86 L 274.23,111.27 L 275.90,112.17 L 276.71,112.62 L 278.12,113.52 L 278.78,113.96 L 279.77,114.74 L 280.62,115.69 L 280.65,115.75 L 280.71,116.38 L 280.74,116.77 L 280.81,118.04 L 280.84,118.75 L 280.90,120.63 L 280.94,121.64 L 281.00,124.08 L 281.03,125.38 L 281.10,128.36 L 281.13,129.92 L 281.20,133.41 L 281.23,135.21 L 281.29,139.17 L 281.33,141.21 L 281.39,145.61 L 281.42,147.86 L 281.48,152.66 L 281.51,155.11 L 281.57,160.27 L 281.60,162.90 L 281.66,168.40 L 281.68,171.20 L 281.74,177.00 L 281.79,182.87 L 281.88,195.38 L 282.00,215.00 L 282.50,312.50 L 310.50,284.12 L 312.57,282.02 L 316.35,278.20 L 318.19,276.35 L 321.53,273.00 L 323.15,271.38 L 326.10,268.48 L 327.52,267.08 L 330.11,264.60 L 331.36,263.41 L 333.62,261.32 L 334.72,260.33 L 336.70,258.61 L 337.66,257.79 L 339.41,256.42 L 340.26,255.77 L 341.80,254.71 L 342.56,254.21 L 343.95,253.44 L 344.62,253.09 L 345.90,252.58 L 347.15,252.13 L 349.47,251.90 L 350.62,251.89 L 352.99,252.37 L 356.97,253.65 L 357.72,253.93 L 359.43,254.85 L 360.31,255.37 L 362.28,256.77 L 363.30,257.53 L 365.53,259.42 L 369.16,262.79 L 370.24,263.85 L 372.09,265.77 L 372.97,266.71 L 374.43,268.45 L 375.11,269.30 L 376.22,270.93 L 376.73,271.74 L 377.51,273.34 L 377.87,274.14 L 378.37,275.79 L 378.58,276.62 L 378.83,278.40 L 378.92,279.31 L 378.95,281.29 L 378.79,284.57 L 378.32,290.17 L 324.41,344.19 L 320.70,347.90 L 313.50,355.10 L 309.95,358.64 L 303.17,365.39 L 299.85,368.69 L 293.65,374.83 L 292.15,376.32 L 289.28,379.16 L 287.86,380.55 L 285.19,383.19 L 283.88,384.48 L 281.43,386.89 L 280.23,388.06 L 278.02,390.23 L 276.94,391.28 L 274.99,393.18 L 274.04,394.09 L 272.37,395.71 L 271.57,396.49 L 270.19,397.80 L 269.54,398.42 L 268.48,399.42 L 268.00,399.87 L 267.28,400.53 L 266.60,401.10 L 265.75,401.73 L 264.33,402.62 L 263.63,403.01 L 262.21,403.50 L 261.46,403.70 L 259.64,403.90 L 256.00,404.00 L 254.54,404.00 L 252.36,403.90 L 251.36,403.83 L 249.79,403.50 L 249.04,403.29 L 247.67,402.62 L 246.97,402.23 Z" fill="rgba(255,64,64,1)"/>
</g>
</svg>