<svg xmlns="http://www.w3.org/2000/svg" width="500" height="500" viewBox="0 0 500 500">
<g>
<path d="M 28.27,479.07 L 27.40,478.67 L 25.83,477.62 L 25.07,477.06 L 23.75,475.74 L 23.13,475.05 L 22.08,473.52 L 21.60,472.74 L 20.86,471.07 L 20.53,470.22 L 20.11,468.46 L 19.95,467.58 L 19.88,465.80 L 19.89,464.92 L 20.20,463.18 L 21.10,460.68 L 21.14,460.61 L 21.76,459.92 L 22.15,459.49 L 23.45,458.12 L 24.18,457.35 L 26.13,455.33 L 27.19,454.24 L 29.75,451.61 L 31.10,450.22 L 34.25,447.01 L 35.89,445.34 L 39.57,441.60 L 41.47,439.66 L 45.66,435.41 L 47.82,433.23 L 52.48,428.52 L 54.86,426.11 L 59.95,420.96 L 62.55,418.34 L 68.04,412.81 L 70.83,409.99 L 76.68,404.10 L 79.65,401.11 L 85.83,394.90 L 88.95,391.76 L 95.42,385.26 L 98.69,381.98 L 105.41,375.24 L 108.80,371.84 L 115.74,364.88 L 126.35,354.25 L 230.50,250.00 L 126.35,145.75 L 122.77,142.17 L 115.74,135.12 L 112.24,131.62 L 105.41,124.76 L 102.02,121.36 L 95.42,114.74 L 92.15,111.46 L 85.83,105.10 L 82.70,101.96 L 76.68,95.90 L 73.71,92.91 L 68.04,87.19 L 65.25,84.38 L 59.95,79.04 L 57.36,76.41 L 52.48,71.48 L 50.09,69.07 L 45.66,64.59 L 43.51,62.40 L 39.57,58.40 L 37.66,56.47 L 34.25,52.99 L 32.61,51.31 L 29.75,48.39 L 28.39,47.00 L 26.13,44.67 L 25.08,43.58 L 23.45,41.88 L 22.72,41.11 L 21.76,40.08 L 21.10,39.32 L 20.74,38.59 L 20.27,37.01 L 20.08,36.20 L 19.96,34.51 L 19.93,33.66 L 20.12,31.94 L 20.25,31.07 L 20.73,29.38 L 21.00,28.55 L 21.75,26.96 L 22.15,26.19 L 23.14,24.78 L 23.66,24.10 L 24.87,22.94 L 26.91,21.55 L 27.78,21.10 L 30.03,20.50 L 31.21,20.24 L 33.74,20.06 L 35.01,20.01 L 37.39,20.25 L 40.32,21.10 L 40.39,21.14 L 41.08,21.75 L 41.51,22.15 L 42.88,23.45 L 43.64,24.18 L 45.66,26.12 L 46.74,27.17 L 49.37,29.73 L 50.76,31.08 L 53.95,34.22 L 55.62,35.85 L 59.36,39.53 L 61.29,41.43 L 65.53,45.61 L 67.71,47.76 L 72.41,52.40 L 74.81,54.78 L 79.95,59.86 L 82.56,62.45 L 88.08,67.93 L 90.89,70.71 L 96.77,76.55 L 99.75,79.51 L 105.95,85.68 L 109.08,88.79 L 115.56,95.25 L 118.84,98.51 L 125.57,105.21 L 128.96,108.59 L 135.90,115.51 L 146.50,126.10 L 250.50,230.00 L 354.00,126.44 L 357.56,122.88 L 364.56,115.88 L 368.04,112.40 L 374.85,105.60 L 378.23,102.23 L 384.81,95.66 L 388.08,92.41 L 394.40,86.11 L 397.53,83.00 L 403.56,77.00 L 406.53,74.05 L 412.23,68.39 L 415.03,65.61 L 420.36,60.33 L 422.97,57.74 L 427.89,52.87 L 430.30,50.49 L 434.77,46.07 L 436.96,43.92 L 440.96,39.99 L 442.89,38.08 L 446.38,34.67 L 448.05,33.03 L 450.99,30.17 L 452.38,28.81 L 454.73,26.54 L 455.82,25.48 L 457.55,23.84 L 458.33,23.10 L 459.39,22.12 L 460.20,21.44 L 461.12,20.95 L 463.42,20.36 L 464.62,20.14 L 467.20,20.06 L 468.49,20.09 L 470.96,20.52 L 474.12,21.73 L 475.19,22.36 L 477.05,24.32 L 477.92,25.39 L 479.24,27.95 L 479.82,29.27 L 480.46,32.09 L 480.50,36.25 L 480.41,36.75 L 479.86,38.01 L 479.67,38.37 L 479.06,39.27 L 478.72,39.76 L 477.76,40.98 L 477.22,41.64 L 475.82,43.26 L 475.06,44.13 L 473.12,46.25 L 472.08,47.38 L 469.53,50.09 L 468.16,51.53 L 464.90,54.91 L 464.04,55.81 L 462.17,57.74 L 461.20,58.73 L 459.12,60.86 L 458.06,61.95 L 455.76,64.29 L 454.58,65.49 L 452.05,68.06 L 450.76,69.37 L 447.99,72.17 L 446.58,73.60 L 443.56,76.65 L 442.02,78.20 L 438.74,81.51 L 437.07,83.19 L 433.51,86.77 L 431.70,88.59 L 427.87,92.44 L 425.91,94.40 L 421.78,98.55 L 419.68,100.66 L 415.25,105.11 L 412.99,107.37 L 408.24,112.13 L 405.82,114.56 L 400.74,119.64 L 398.16,122.23 L 392.74,127.66 L 389.99,130.41 L 384.22,136.19 L 375.17,145.25 L 270.52,250.00 L 375.17,354.75 L 378.28,357.86 L 384.22,363.81 L 387.15,366.75 L 392.74,372.34 L 395.49,375.10 L 400.74,380.36 L 403.32,382.94 L 408.24,387.87 L 410.65,390.29 L 415.25,394.89 L 417.50,397.15 L 421.78,401.45 L 423.89,403.56 L 427.87,407.56 L 429.82,409.52 L 433.51,413.23 L 435.32,415.06 L 438.74,418.49 L 440.41,420.18 L 443.56,423.35 L 445.10,424.91 L 447.99,427.83 L 449.41,429.26 L 452.05,431.94 L 453.34,433.26 L 455.76,435.71 L 456.93,436.91 L 459.12,439.14 L 460.19,440.23 L 462.17,442.26 L 463.13,443.25 L 464.90,445.09 L 466.63,446.87 L 469.53,449.91 L 470.89,451.35 L 473.12,453.75 L 474.16,454.88 L 475.82,456.74 L 476.59,457.61 L 477.76,459.02 L 478.29,459.68 L 479.06,460.73 L 479.41,461.21 L 479.86,461.99 L 480.50,463.75 L 480.68,464.93 L 480.61,467.24 L 480.50,468.38 L 479.89,470.56 L 479.52,471.63 L 478.44,473.60 L 477.85,474.55 L 476.39,476.23 L 475.61,477.03 L 473.84,478.35 L 472.91,478.96 L 470.90,479.84 L 469.87,480.21 L 467.69,480.58 L 464.32,480.45 L 464.10,480.41 L 463.57,480.20 L 463.28,480.07 L 462.53,479.62 L 462.13,479.36 L 461.11,478.59 L 460.55,478.16 L 459.18,477.00 L 458.44,476.37 L 456.63,474.75 L 455.66,473.88 L 453.35,471.73 L 452.12,470.59 L 449.23,467.84 L 447.70,466.38 L 444.16,462.95 L 443.23,462.05 L 441.23,460.11 L 440.21,459.11 L 438.03,456.97 L 436.91,455.88 L 434.53,453.54 L 433.31,452.34 L 430.72,449.79 L 429.40,448.49 L 426.59,445.71 L 425.16,444.30 L 422.13,441.30 L 420.58,439.77 L 417.32,436.53 L 415.65,434.87 L 412.14,431.39 L 410.35,429.61 L 406.59,425.86 L 404.67,423.96 L 400.65,419.95 L 398.60,417.91 L 394.30,413.62 L 392.11,411.44 L 387.53,406.87 L 385.20,404.55 L 380.33,399.69 L 377.86,397.22 L 372.68,392.06 L 370.06,389.44 L 364.58,383.96 L 355.99,375.39 L 352.40,371.80 L 345.34,364.76 L 341.84,361.26 L 334.98,354.42 L 331.58,351.03 L 324.96,344.44 L 321.68,341.17 L 315.34,334.86 L 312.20,331.74 L 306.16,325.74 L 303.19,322.78 L 297.50,317.13 L 294.70,314.35 L 289.39,309.09 L 286.79,306.51 L 281.89,301.67 L 279.50,299.30 L 275.07,294.92 L 272.91,292.78 L 268.96,288.89 L 267.05,287.01 L 263.63,283.65 L 261.98,282.04 L 259.12,279.24 L 257.77,277.91 L 255.51,275.71 L 254.45,274.69 L 252.82,273.13 L 252.09,272.43 L 251.14,271.54 L 250.49,271.00 L 250.46,271.00 L 249.86,271.53 L 249.47,271.88 L 248.20,273.09 L 247.48,273.78 L 245.57,275.63 L 244.54,276.63 L 242.02,279.09 L 240.69,280.39 L 237.60,283.43 L 235.99,285.01 L 232.37,288.58 L 230.50,290.43 L 226.38,294.50 L 224.26,296.59 L 219.68,301.13 L 217.34,303.45 L 212.33,308.42 L 209.77,310.96 L 204.37,316.32 L 201.63,319.05 L 195.87,324.78 L 192.95,327.69 L 186.87,333.74 L 183.80,336.80 L 177.44,343.15 L 174.22,346.36 L 167.61,352.96 L 164.27,356.29 L 157.44,363.12 L 147.00,373.56 L 143.47,377.09 L 136.54,384.02 L 133.10,387.46 L 126.36,394.20 L 123.01,397.55 L 116.49,404.06 L 113.26,407.28 L 107.00,413.53 L 103.91,416.62 L 97.94,422.57 L 95.00,425.51 L 89.36,431.12 L 86.59,433.88 L 81.32,439.13 L 78.73,441.70 L 73.86,446.54 L 71.48,448.91 L 67.06,453.31 L 64.90,455.45 L 60.95,459.37 L 59.03,461.26 L 55.59,464.67 L 53.94,466.31 L 51.04,469.17 L 49.66,470.52 L 47.35,472.80 L 46.26,473.86 L 44.57,475.51 L 43.80,476.26 L 42.76,477.26 L 41.97,477.98 L 40.96,478.71 L 38.81,479.70 L 37.71,480.12 L 35.42,480.47 L 34.26,480.56 L 31.88,480.26 L 30.69,480.02 Z" fill="rgba(218,1,2,1)"/>
</g>
</svg>