<?xml version="1.0" standalone="no"?>
<!DOCTYPE svg PUBLIC "-//W3C//DTD SVG 20010904//EN"
 "http://www.w3.org/TR/2001/REC-SVG-20010904/DTD/svg10.dtd">
<svg version="1.0" xmlns="http://www.w3.org/2000/svg"
 width="500.000000pt" height="500.000000pt" viewBox="0 0 500.000000 500.000000"
 preserveAspectRatio="xMidYMid meet">
<metadata>
Created by potrace 1.16, written by Peter Selinger 2001-2019
</metadata>
<g transform="translate(0.000000,500.000000) scale(0.100000,-0.100000)"
fill="red" stroke="none">
<path d="M295 4799 c-42 -12 -85 -59 -95 -103 -19 -85 -66 -33 1053 -1153
l1042 -1043 -1042 -1042 c-865 -867 -1043 -1049 -1051 -1080 -29 -109 67 -205
176 -176 31 8 213 186 1080 1051 l1042 1042 1043 -1042 c866 -865 1048 -1043
1079 -1051 109 -29 205 67 176 176 -8 31 -186 213 -1051 1080 l-1042 1042
1042 1043 c911 911 1043 1047 1052 1082 28 108 -68 202 -177 173 -31 -8 -213
-186 -1079 -1051 l-1043 -1042 -1042 1042 c-904 902 -1048 1043 -1083 1052
-22 6 -42 11 -45 10 -3 0 -19 -5 -35 -10z"/>
</g>
</svg>
