<svg xmlns="http://www.w3.org/2000/svg" width="512" height="512" viewBox="0 0 512 512">
<g>
<path d="M 259.29,0.57 L 265.62,0.65 L 268.73,0.70 L 274.54,0.89 L 275.95,0.95 L 278.58,1.08 L 279.86,1.14 L 282.22,1.30 L 283.36,1.38 L 285.38,1.56 L 288.00,1.86 L 291.67,2.37 L 298.90,3.58 L 302.50,4.22 L 309.60,5.69 L 313.14,6.46 L 320.11,8.20 L 323.58,9.10 L 330.41,11.10 L 333.81,12.13 L 340.52,14.39 L 343.85,15.55 L 350.41,18.07 L 353.68,19.37 L 360.11,22.14 L 363.30,23.57 L 369.59,26.60 L 372.72,28.16 L 378.86,31.45 L 381.92,33.13 L 387.92,36.68 L 390.91,38.49 L 396.77,42.30 L 399.69,44.24 L 405.40,48.31 L 408.24,50.37 L 413.82,54.69 L 416.58,56.89 L 422.01,61.46 L 424.70,63.78 L 429.98,68.61 L 437.73,76.14 L 440.25,78.69 L 445.09,83.88 L 447.48,86.49 L 452.07,91.81 L 454.33,94.48 L 458.66,99.93 L 460.80,102.66 L 464.88,108.24 L 466.88,111.04 L 470.71,116.75 L 472.59,119.62 L 476.16,125.46 L 477.91,128.40 L 481.23,134.38 L 482.86,137.39 L 485.93,143.51 L 487.43,146.59 L 490.25,152.85 L 491.63,156.00 L 494.20,162.41 L 495.46,165.63 L 497.78,172.18 L 498.91,175.48 L 500.99,182.19 L 502.00,185.56 L 503.84,192.41 L 504.72,195.86 L 506.32,202.87 L 507.08,206.40 L 508.43,213.57 L 510.18,224.50 L 510.29,225.24 L 510.48,227.02 L 510.57,227.96 L 510.73,230.10 L 510.81,231.22 L 510.95,233.67 L 511.02,234.94 L 511.13,237.65 L 511.23,240.42 L 511.36,246.50 L 511.41,249.60 L 511.44,256.00 L 511.44,259.20 L 511.36,265.50 L 511.31,268.59 L 511.13,274.35 L 511.07,275.73 L 510.95,278.33 L 510.88,279.59 L 510.73,281.90 L 510.66,283.01 L 510.48,284.98 L 510.18,287.50 L 509.22,294.30 L 506.60,307.62 L 505.18,314.23 L 501.67,327.12 L 499.80,333.51 L 495.41,345.95 L 493.11,352.11 L 487.86,364.05 L 485.13,369.96 L 479.04,381.38 L 475.89,387.02 L 468.98,397.87 L 465.42,403.22 L 457.69,413.47 L 445.20,428.14 L 442.60,430.96 L 437.27,436.40 L 434.59,439.08 L 429.11,444.24 L 426.36,446.78 L 420.73,451.66 L 417.89,454.07 L 412.11,458.66 L 409.20,460.93 L 403.27,465.25 L 400.28,467.37 L 394.20,471.40 L 391.14,473.39 L 384.91,477.14 L 381.77,478.98 L 375.40,482.45 L 372.19,484.15 L 365.66,487.34 L 362.38,488.90 L 355.71,491.80 L 352.36,493.22 L 345.55,495.84 L 342.12,497.11 L 335.16,499.45 L 331.66,500.58 L 324.56,502.63 L 321.00,503.62 L 313.75,505.38 L 310.11,506.23 L 302.73,507.70 L 291.50,509.60 L 290.74,509.71 L 288.95,509.93 L 288.01,510.03 L 285.91,510.23 L 283.75,510.42 L 278.69,510.75 L 276.07,510.91 L 270.38,511.15 L 267.49,511.27 L 261.52,511.42 L 258.53,511.49 L 252.65,511.55 L 249.76,511.57 L 244.33,511.52 L 241.71,511.49 L 237.10,511.33 L 236.02,511.28 L 234.06,511.16 L 233.13,511.10 L 231.50,510.95 L 225.99,510.38 L 215.10,508.74 L 209.68,507.84 L 199.01,505.54 L 193.70,504.31 L 183.26,501.36 L 178.08,499.81 L 167.90,496.23 L 162.85,494.37 L 152.96,490.18 L 148.05,488.02 L 138.47,483.24 L 133.73,480.77 L 124.48,475.42 L 119.91,472.67 L 111.02,466.75 L 106.63,463.72 L 98.13,457.26 L 93.93,453.97 L 85.84,446.98 L 81.85,443.42 L 74.20,435.93 L 70.43,432.12 L 63.23,424.13 L 59.69,420.08 L 52.98,411.61 L 49.68,407.32 L 43.48,398.40 L 40.44,393.89 L 34.77,384.52 L 26.89,370.00 L 24.53,365.30 L 20.27,355.71 L 18.23,350.89 L 14.60,341.08 L 12.87,336.16 L 9.87,326.17 L 8.45,321.15 L 6.07,311.01 L 4.96,305.92 L 3.21,295.67 L 2.42,290.53 L 1.29,280.20 L 0.81,275.03 L 0.31,264.65 L 0.13,259.46 L 0.25,249.08 L 0.39,243.89 L 1.13,233.53 L 1.57,228.36 L 2.93,218.07 L 3.69,212.94 L 5.67,202.75 L 6.74,197.66 L 9.33,187.61 L 10.71,182.60 L 13.92,172.71 L 15.60,167.79 L 19.43,158.11 L 21.43,153.30 L 25.87,143.85 L 33.23,130.00 L 36.31,124.63 L 42.77,114.53 L 46.08,109.57 L 53.11,100.12 L 56.71,95.47 L 64.46,86.48 L 77.08,73.28 L 79.60,70.81 L 84.74,66.05 L 87.32,63.70 L 92.59,59.20 L 95.24,56.97 L 100.65,52.71 L 103.37,50.61 L 108.90,46.60 L 111.69,44.62 L 117.37,40.86 L 120.22,39.00 L 126.04,35.48 L 128.96,33.75 L 134.91,30.48 L 137.91,28.87 L 144.00,25.84 L 147.06,24.35 L 153.30,21.56 L 156.43,20.20 L 162.81,17.65 L 166.02,16.41 L 172.54,14.11 L 175.82,12.99 L 182.49,10.93 L 185.84,9.93 L 192.66,8.11 L 196.08,7.23 L 203.05,5.65 L 206.55,4.89 L 213.66,3.55 L 224.50,1.82 L 225.24,1.71 L 227.04,1.52 L 227.98,1.43 L 230.13,1.26 L 231.25,1.18 L 233.71,1.05 L 234.98,0.98 L 237.70,0.87 L 240.47,0.76 L 246.56,0.64 L 249.66,0.58 L 256.08,0.56 M 100.00,378.00 L 100.00,396.00 L 421.00,396.00 L 421.00,378.00 M 100.00,260.00 L 100.00,278.00 L 421.00,278.00 L 421.00,260.00 M 97.00,133.00 L 97.00,151.00 L 418.00,151.00 L 418.00,133.00 Z" fill="rgba(0,0,0,1)"/>
<path d="M 100.00,387.00 L 100.00,378.00 L 260.50,378.00 L 421.00,378.00 L 421.00,387.00 L 421.00,396.00 L 260.50,396.00 L 100.00,396.00 L 100.00,387.00 M 100.00,269.00 L 100.00,260.00 L 260.50,260.00 L 421.00,260.00 L 421.00,269.00 L 421.00,278.00 L 260.50,278.00 L 100.00,278.00 L 100.00,269.00 M 97.00,142.00 L 97.00,133.00 L 257.50,133.00 L 418.00,133.00 L 418.00,142.00 L 418.00,151.00 L 257.50,151.00 L 97.00,151.00 L 97.00,142.00 Z" fill="rgba(255,255,255,1)"/>
</g>
</svg>