<svg xmlns="http://www.w3.org/2000/svg" width="786" height="317" viewBox="0 0 786 317">
<g>
<path d="M 54.03,265.27 L 56.62,267.51 L 58.00,268.60 L 63.71,272.80 L 66.65,274.59 L 68.03,275.40 L 66.73,274.72 L 65.76,274.19 L 63.94,273.13 L 61.50,271.59 L 60.84,271.14 L 59.31,269.95 L 58.52,269.32 L 56.79,267.82 L 55.03,266.27 L 52.27,263.57 M 45.56,256.41 L 45.45,256.28 L 45.38,256.19 M 31.89,225.71 L 32.24,228.03 L 32.53,228.93 L 33.20,230.64 L 33.68,231.55 L 35.41,235.57 L 35.91,237.01 L 36.10,237.69 L 36.45,239.00 L 36.55,239.55 L 37.99,244.66 L 38.95,246.80 L 38.25,245.66 L 36.64,242.80 L 35.89,241.40 L 34.71,238.77 L 34.16,237.46 L 33.33,234.84 L 32.96,233.52 L 32.43,230.69 L 32.19,229.23 L 31.90,225.97 L 31.85,225.41 M 33.22,190.36 L 33.33,189.54 L 33.35,189.45 M 50.33,142.00 L 46.63,149.29 L 45.03,152.78 L 41.99,159.68 L 40.70,163.03 L 38.28,169.66 L 37.28,172.91 L 35.43,179.40 L 34.71,182.63 L 34.12,185.55 L 34.62,183.01 L 35.33,179.75 L 37.16,173.22 L 38.15,169.95 L 40.58,163.28 L 41.87,159.92 L 44.92,152.99 L 46.53,149.47 L 50.26,142.13 L 50.84,141.07 M 232.02,173.09 L 230.02,173.56 L 224.11,174.97 L 220.37,175.88 L 218.74,176.29 L 215.66,177.05 L 214.50,177.35 L 213.42,177.63 L 213.00,177.74 L 212.24,177.95 L 212.00,178.02 L 208.79,178.66 L 207.72,178.78 L 207.25,178.80 L 206.34,178.81 L 206.00,178.77 L 205.22,178.73 L 204.46,178.73 L 203.96,178.73 L 201.72,178.77 L 200.27,178.82 L 197.18,178.94 L 196.45,178.97 L 199.09,178.72 L 200.78,178.55 L 203.85,178.13 L 207.81,177.41 L 209.55,177.02 L 213.17,176.42 L 214.01,176.29 L 215.49,176.11 L 217.17,176.00 L 217.48,176.00 L 218.53,175.87 L 219.13,175.79 L 220.69,175.52 L 221.53,175.37 L 223.53,174.96 L 224.57,174.75 L 226.92,174.24 L 229.34,173.70 L 233.88,172.63 M 165.58,178.73 L 162.10,178.27 L 159.22,177.65 L 158.84,177.55 M 156.08,176.86 L 153.62,176.24 L 153.36,176.15 M 140.91,170.97 L 140.71,170.88 L 140.20,170.59 M 123.16,156.99 L 124.91,159.01 L 128.80,162.68 L 130.81,164.44 L 135.20,167.60 L 135.96,168.10 L 135.26,167.69 L 133.58,166.51 L 130.31,164.09 L 128.80,162.78 L 125.85,160.08 L 124.50,158.62 L 121.87,155.63 L 120.67,154.03 L 120.02,153.10 M 332.10,145.84 L 326.86,147.25 L 324.41,147.91 L 319.63,149.20 L 317.40,149.80 L 313.06,150.98 L 311.05,151.53 L 307.13,152.60 L 305.33,153.09 L 301.82,154.06 L 300.22,154.50 L 297.10,155.36 L 295.69,155.76 L 292.95,156.53 L 291.71,156.88 L 289.33,157.56 L 288.27,157.87 L 286.23,158.47 L 285.33,158.73 L 283.61,159.25 L 282.87,159.48 L 281.47,159.92 L 280.87,160.11 L 279.76,160.48 L 279.30,160.64 L 278.46,160.94 L 278.14,161.07 L 277.10,161.52 L 276.92,161.67 L 275.00,162.61 L 273.35,163.00 L 272.60,163.00 L 271.79,163.07 L 271.02,163.19 L 270.53,163.28 L 268.34,163.72 L 266.94,164.05 L 263.98,164.76 L 262.43,165.15 L 263.25,164.91 L 264.20,164.62 L 265.77,164.11 L 266.50,163.87 L 267.56,163.47 L 268.50,163.01 L 268.64,162.91 L 269.32,162.62 L 269.72,162.47 L 270.82,162.12 L 275.00,161.03 L 275.38,160.95 L 276.50,160.68 L 277.12,160.52 L 278.67,160.13 L 279.50,159.92 L 281.41,159.43 L 282.41,159.17 L 284.61,158.60 L 286.88,158.00 L 291.99,156.63 L 300.00,154.47 L 302.68,153.73 L 308.68,152.10 L 311.72,151.28 L 317.88,149.61 L 320.92,148.79 L 326.53,147.29 L 327.86,146.94 L 330.29,146.29 L 333.50,145.44 L 335.43,144.93 L 339.80,143.78 M 476.31,153.03 L 475.44,153.49 L 473.28,154.55 L 472.14,155.10 L 469.61,156.29 L 467.02,157.48 L 461.57,159.88 L 460.25,160.46 L 457.79,161.49 L 456.61,161.98 L 454.57,162.80 L 453.63,163.17 L 452.54,163.56 L 453.20,162.91 L 453.36,162.50 L 454.10,161.44 L 454.75,161.00 L 455.06,161.00 L 455.71,160.86 L 456.30,160.63 L 456.64,160.47 L 458.12,159.69 L 458.85,159.19 L 460.31,158.39 L 461.60,157.81 L 462.34,157.53 L 465.49,156.42 L 467.00,156.06 L 469.53,155.35 L 471.39,154.76 L 472.33,154.42 L 474.22,153.73 L 475.09,153.38 L 476.76,152.69 L 477.44,152.36 L 480.85,150.92 M 118.33,150.58 L 119.49,152.35 L 118.35,150.74 L 117.30,148.98 L 116.31,147.24 M 480.99,150.86 L 481.38,150.69 L 481.74,150.57 M 434.82,118.74 L 431.65,119.58 L 425.44,121.23 L 425.62,121.18 L 432.03,119.48 L 435.28,118.62 L 438.32,117.82 M 130.93,34.69 L 130.80,35.13 L 130.26,36.57 L 129.95,37.36 L 129.08,39.35 L 127.49,42.75 L 125.66,46.51 L 122.13,54.66 L 120.40,58.80 L 117.20,67.31 L 115.66,71.56 L 113.01,79.87 L 112.41,81.83 L 113.00,79.82 L 114.23,75.67 L 114.79,73.90 L 115.34,72.21 L 115.58,71.49 L 116.04,70.16 L 116.23,69.67 L 117.03,66.69 L 117.41,64.42 L 117.45,63.50 L 117.64,61.92 L 117.89,60.72 L 118.06,60.09 L 118.83,57.57 L 119.30,56.58 L 121.00,53.00 L 122.23,50.41 L 122.70,49.43 L 123.48,47.62 L 123.77,46.73 L 123.80,46.40 L 123.78,45.82 L 123.66,45.60 L 123.34,45.21 L 123.08,45.05 L 122.01,45.22 L 120.89,45.94 L 120.12,46.63 L 119.31,47.37 L 118.84,47.82 L 117.87,48.79 L 117.33,49.35 L 116.20,50.55 L 115.57,51.23 L 114.27,52.66 L 113.56,53.47 L 105.47,62.68 L 102.84,65.72 L 101.58,67.20 L 99.09,70.10 L 97.94,71.47 L 95.68,74.14 L 94.67,75.36 L 92.72,77.70 L 91.88,78.73 L 90.32,80.66 L 89.71,81.44 L 88.60,82.87 L 88.25,83.36 L 85.54,87.15 L 83.84,89.54 L 83.06,90.63 L 81.58,92.73 L 80.95,93.63 L 79.76,95.34 L 79.30,96.00 L 78.34,97.33 L 77.50,98.45 L 77.01,99.09 L 74.92,101.76 L 73.91,103.00 L 70.89,106.93 L 69.88,108.38 L 69.33,109.20 L 68.21,110.91 L 67.59,111.90 L 66.30,113.99 L 65.56,115.21 L 65.17,115.85 L 65.95,114.54 L 67.54,111.90 L 69.10,109.31 L 72.01,104.67 L 73.44,102.41 L 76.23,98.23 L 77.62,96.17 L 80.49,92.14 L 81.96,90.11 L 85.11,85.95 L 86.75,83.82 L 90.39,79.22 L 91.34,78.02 L 93.36,75.51 L 96.61,71.50 L 97.19,70.78 L 98.52,69.19 L 99.21,68.37 L 100.72,66.60 L 102.26,64.79 L 105.75,60.80 L 109.32,56.75 L 116.84,48.45 L 118.66,46.46 L 122.04,42.84 L 122.84,41.98 L 124.35,40.39 L 125.08,39.62 L 126.41,38.25 L 127.04,37.59 L 128.15,36.48 L 128.67,35.96 L 129.53,35.14 L 129.92,34.77 L 130.48,34.30 L 130.96,34.00 L 131.06,34.00 M 109.84,91.50 L 110.46,89.01 L 110.95,87.13 L 111.05,86.74 M 619.94,70.01 L 616.49,70.92 L 613.12,71.81 L 611.57,72.23 L 608.57,73.02 L 607.25,73.37 L 604.72,74.04 L 603.67,74.32 L 601.72,74.84 L 601.00,75.03 L 598.61,75.67 L 596.80,76.15 L 595.82,76.41 L 591.69,77.51 L 589.47,78.09 L 584.97,79.28 L 582.76,79.86 L 578.42,81.00 L 576.50,81.50 L 570.08,83.18 L 565.34,84.42 L 562.94,85.05 L 558.16,86.30 L 555.96,86.88 L 553.80,87.45 L 552.80,87.71 L 550.86,88.22 L 550.63,88.28 L 552.79,87.71 L 554.97,87.13 L 559.24,86.01 L 565.00,84.49 L 568.35,83.61 L 574.83,81.90 L 578.03,81.06 L 584.28,79.41 L 590.49,77.78 L 602.50,74.61 L 608.49,73.03 L 620.47,69.87 L 626.23,68.35 M 654.33,60.96 L 650.51,61.96 L 642.78,64.00 L 639.00,64.99 L 627.65,67.98 L 639.00,64.99 L 642.64,64.02 L 650.24,62.03 L 654.01,61.04 L 655.86,60.55 M 707.18,54.12 L 699.50,57.56 L 697.02,58.72 L 691.98,60.91 L 690.80,61.41 L 688.78,62.22 L 686.52,63.04 L 688.78,62.21 L 690.80,61.39 L 691.98,60.89 L 697.02,58.67 L 699.50,57.50 L 703.21,55.78 L 705.60,54.73 L 706.66,54.29 L 708.69,53.46 L 709.01,53.34 M 701.91,48.50 L 701.05,48.76 L 699.45,49.26 L 698.84,49.46 L 697.77,49.83 L 697.50,49.96 L 696.41,50.36 L 695.46,50.64 L 694.91,50.78 L 692.60,51.33 L 691.50,51.51 L 689.12,51.99 L 686.90,52.48 L 685.59,52.79 L 682.93,53.45 L 684.00,53.15 L 686.90,52.31 L 688.27,51.90 L 690.48,51.19 L 690.97,51.03 L 691.77,50.75 L 692.65,50.41 L 693.52,50.02 L 695.57,49.41 L 698.15,48.98 L 698.47,48.97 L 699.53,48.83 L 700.12,48.74 L 701.61,48.45 L 703.18,48.13 L 703.37,48.08 M 744.89,37.22 L 744.79,37.37 L 744.70,37.47 L 744.27,37.77 L 744.01,37.93 L 743.27,38.35 L 742.86,38.58 L 741.85,39.11 L 740.78,39.66 L 738.00,41.02 L 736.52,41.72 L 733.15,43.28 L 729.70,44.86 L 722.32,48.05 L 720.54,48.80 L 717.25,50.14 L 713.28,51.65 L 713.64,51.33 L 713.78,51.13 L 714.00,50.72 L 714.00,50.52 L 714.30,49.86 L 714.77,49.41 L 715.12,49.18 L 716.81,48.32 L 717.96,48.01 L 719.80,47.43 L 720.66,47.04 L 720.92,46.84 L 721.34,46.41 L 721.40,46.17 L 721.43,45.67 L 721.32,45.38 L 720.22,44.32 L 718.99,44.13 L 718.11,44.29 L 716.11,44.71 L 714.41,45.12 L 714.16,45.18 L 715.14,44.86 L 717.00,44.18 L 717.58,43.95 L 719.46,43.32 L 720.50,42.99 L 723.07,42.24 L 724.42,41.86 L 727.40,41.05 L 728.92,40.65 L 732.02,39.86 L 733.56,39.47 L 736.50,38.77 L 737.92,38.43 L 740.40,37.89 L 741.56,37.64 L 743.31,37.33 L 743.69,37.27 L 744.25,37.20 L 744.79,37.20 Z" fill="rgba(202,47,57,1)"/>
<path d="M 106.50,286.40 L 104.60,286.27 L 100.41,285.77 L 98.31,285.50 L 94.37,284.84 L 93.43,284.68 L 91.76,284.34 L 90.96,284.17 L 89.64,283.84 L 89.03,283.68 L 88.17,283.39 L 87.50,283.00 L 87.43,282.88 L 86.97,282.62 L 86.69,282.49 L 85.89,282.21 L 82.74,281.48 L 81.66,281.30 L 79.22,280.61 L 77.97,280.21 L 75.27,279.11 L 73.90,278.52 L 71.03,277.07 L 69.59,276.32 L 66.65,274.59 L 63.71,272.80 L 58.00,268.60 L 56.62,267.51 L 54.03,265.27 L 50.47,261.83 L 49.34,260.64 L 47.32,258.42 L 46.35,257.34 L 44.65,255.32 L 43.83,254.33 L 42.41,252.45 L 41.74,251.53 L 40.59,249.76 L 39.49,248.01 L 37.99,244.66 L 36.55,239.55 L 36.45,239.00 L 36.10,237.69 L 35.91,237.01 L 35.41,235.57 L 33.68,231.55 L 33.20,230.64 L 32.53,228.93 L 32.24,228.03 L 31.89,225.71 L 31.81,225.05 L 31.71,223.48 L 31.67,222.65 L 31.61,220.64 L 31.59,219.58 L 31.56,217.03 L 31.56,212.50 L 31.56,209.00 L 31.90,202.24 L 32.13,198.89 L 32.93,192.34 L 33.40,189.08 L 34.71,182.63 L 35.43,179.40 L 37.28,172.91 L 38.28,169.66 L 40.70,163.03 L 41.99,159.68 L 45.03,152.78 L 46.63,149.29 L 50.33,142.00 L 56.64,130.51 L 57.94,128.25 L 60.19,124.34 L 61.27,122.48 L 63.13,119.30 L 64.02,117.79 L 65.56,115.21 L 66.30,113.99 L 67.59,111.90 L 68.21,110.91 L 69.33,109.20 L 69.88,108.38 L 70.89,106.93 L 73.91,103.00 L 74.92,101.76 L 77.01,99.09 L 77.50,98.45 L 78.34,97.33 L 79.30,96.00 L 79.76,95.34 L 80.95,93.63 L 81.58,92.73 L 83.06,90.63 L 83.84,89.54 L 85.54,87.15 L 88.25,83.36 L 88.60,82.87 L 89.71,81.44 L 90.32,80.66 L 91.88,78.73 L 92.72,77.70 L 94.67,75.36 L 95.68,74.14 L 97.94,71.47 L 99.09,70.10 L 101.58,67.20 L 102.84,65.72 L 105.47,62.68 L 113.56,53.47 L 114.27,52.66 L 115.57,51.23 L 116.20,50.55 L 117.33,49.35 L 117.87,48.79 L 118.84,47.82 L 119.31,47.37 L 120.12,46.63 L 120.89,45.94 L 122.01,45.22 L 123.08,45.05 L 123.34,45.21 L 123.66,45.60 L 123.78,45.82 L 123.80,46.40 L 123.77,46.73 L 123.48,47.62 L 122.70,49.43 L 122.23,50.41 L 121.00,53.00 L 119.30,56.58 L 118.83,57.57 L 118.06,60.09 L 117.89,60.72 L 117.64,61.92 L 117.45,63.50 L 117.41,64.42 L 117.03,66.69 L 116.23,69.67 L 116.04,70.16 L 115.58,71.49 L 115.34,72.21 L 114.79,73.90 L 114.23,75.67 L 113.00,79.82 L 112.38,81.93 L 111.22,86.12 L 110.95,87.13 L 110.46,89.01 L 109.84,91.50 L 109.75,91.89 L 109.58,92.89 L 109.49,93.42 L 109.34,94.66 L 109.19,95.96 L 108.93,99.15 L 108.82,100.82 L 108.64,104.53 L 108.56,106.43 L 108.45,110.36 L 108.41,112.33 L 108.40,116.20 L 108.40,118.10 L 108.48,121.61 L 108.53,123.29 L 108.70,126.15 L 108.75,126.81 L 108.87,127.95 L 109.08,129.38 L 109.20,130.04 L 109.77,131.99 L 110.10,133.04 L 111.00,135.52 L 114.36,143.47 L 115.27,145.39 L 117.30,148.98 L 118.35,150.74 L 120.67,154.03 L 121.87,155.63 L 124.50,158.62 L 125.85,160.08 L 128.80,162.78 L 130.31,164.09 L 133.58,166.51 L 135.26,167.69 L 138.87,169.83 L 140.71,170.88 L 144.67,172.76 L 151.00,175.30 L 153.62,176.24 L 159.22,177.65 L 162.10,178.27 L 168.31,179.08 L 171.51,179.41 L 178.49,179.63 L 180.29,179.65 L 184.07,179.58 L 190.00,179.31 L 191.86,179.20 L 195.44,179.02 L 197.18,178.94 L 200.27,178.82 L 201.72,178.77 L 203.96,178.73 L 204.46,178.73 L 205.22,178.73 L 206.00,178.77 L 206.34,178.81 L 207.25,178.80 L 207.72,178.78 L 208.79,178.66 L 212.00,178.02 L 212.24,177.95 L 213.00,177.74 L 213.42,177.63 L 214.50,177.35 L 215.66,177.05 L 218.74,176.29 L 220.37,175.88 L 224.11,174.97 L 230.02,173.56 L 232.02,173.09 L 236.66,171.95 L 239.04,171.36 L 243.99,170.09 L 246.46,169.46 L 251.14,168.22 L 252.26,167.92 L 254.36,167.35 L 257.20,166.57 L 258.94,166.08 L 262.33,165.18 L 263.98,164.76 L 266.94,164.05 L 268.34,163.72 L 270.53,163.28 L 271.02,163.19 L 271.79,163.07 L 272.60,163.00 L 273.35,163.00 L 275.00,162.61 L 276.92,161.67 L 277.10,161.52 L 278.14,161.07 L 278.46,160.94 L 279.30,160.64 L 279.76,160.48 L 280.87,160.11 L 281.47,159.92 L 282.87,159.48 L 283.61,159.25 L 285.33,158.73 L 286.23,158.47 L 288.27,157.87 L 289.33,157.56 L 291.71,156.88 L 292.95,156.53 L 295.69,155.76 L 297.10,155.36 L 300.22,154.50 L 301.82,154.06 L 305.33,153.09 L 307.13,152.60 L 311.05,151.53 L 313.06,150.98 L 317.40,149.80 L 319.63,149.20 L 324.41,147.91 L 326.86,147.25 L 332.10,145.84 L 340.50,143.59 L 342.74,142.99 L 346.85,141.89 L 348.84,141.36 L 352.52,140.37 L 354.31,139.90 L 357.67,139.00 L 359.31,138.57 L 362.44,137.74 L 365.53,136.92 L 371.45,135.36 L 380.75,132.93 L 382.30,132.53 L 386.01,131.56 L 387.92,131.06 L 392.00,130.00 L 394.04,129.47 L 397.99,128.44 L 403.25,127.07 L 404.80,126.67 L 408.25,125.76 L 410.00,125.30 L 413.55,124.37 L 415.29,123.91 L 418.51,123.07 L 422.50,122.01 L 425.44,121.23 L 431.65,119.58 L 434.82,118.74 L 441.58,116.96 L 445.03,116.05 L 452.46,114.09 L 464.50,110.93 L 466.56,110.39 L 471.07,109.20 L 473.35,108.61 L 477.88,107.41 L 480.10,106.83 L 484.13,105.77 L 485.08,105.51 L 486.79,105.06 L 489.00,104.48 L 489.65,104.30 L 491.31,103.86 L 492.18,103.63 L 494.23,103.09 L 495.29,102.81 L 497.64,102.19 L 498.85,101.87 L 501.44,101.19 L 504.07,100.50 L 509.68,99.03 L 518.00,96.84 L 520.68,96.14 L 526.56,94.60 L 529.52,93.82 L 535.44,92.27 L 538.34,91.51 L 543.61,90.13 L 544.85,89.80 L 547.09,89.21 L 550.00,88.45 L 550.86,88.22 L 552.80,87.71 L 553.80,87.45 L 555.96,86.88 L 558.16,86.30 L 562.94,85.05 L 565.34,84.42 L 570.08,83.18 L 576.50,81.50 L 578.42,81.00 L 582.76,79.86 L 584.97,79.28 L 589.47,78.09 L 591.69,77.51 L 595.82,76.41 L 596.80,76.15 L 598.61,75.67 L 601.00,75.03 L 601.72,74.84 L 603.67,74.32 L 604.72,74.04 L 607.25,73.37 L 608.57,73.02 L 611.57,72.23 L 613.12,71.81 L 616.49,70.92 L 619.94,70.01 L 627.49,68.02 L 639.00,64.99 L 642.78,64.00 L 650.51,61.96 L 654.33,60.96 L 661.51,59.06 L 663.23,58.61 L 666.43,57.76 L 667.98,57.35 L 670.75,56.62 L 672.08,56.27 L 674.33,55.67 L 677.00,54.96 L 679.89,54.19 L 685.59,52.79 L 686.90,52.48 L 689.12,51.99 L 691.50,51.51 L 692.60,51.33 L 694.91,50.78 L 695.46,50.64 L 696.41,50.36 L 697.50,49.96 L 697.77,49.83 L 698.84,49.46 L 699.45,49.26 L 701.05,48.76 L 701.91,48.50 L 703.88,47.93 L 704.89,47.64 L 707.06,47.04 L 709.23,46.44 L 713.43,45.36 L 714.41,45.12 L 716.11,44.71 L 718.11,44.29 L 718.99,44.13 L 720.22,44.32 L 721.32,45.38 L 721.43,45.67 L 721.40,46.17 L 721.34,46.41 L 720.92,46.84 L 720.66,47.04 L 719.80,47.43 L 717.96,48.01 L 716.81,48.32 L 715.12,49.18 L 714.77,49.41 L 714.30,49.86 L 714.00,50.52 L 714.00,50.72 L 713.78,51.13 L 713.64,51.33 L 713.19,51.72 L 711.25,52.59 L 710.87,52.67 L 709.47,53.17 L 708.69,53.46 L 706.66,54.29 L 705.60,54.73 L 703.21,55.78 L 699.50,57.50 L 697.02,58.67 L 691.98,60.89 L 690.80,61.39 L 688.78,62.21 L 686.52,63.04 L 685.43,63.39 L 682.83,64.47 L 682.19,64.76 L 681.01,65.33 L 679.52,66.15 L 678.69,66.66 L 677.05,67.45 L 676.67,67.62 L 676.03,67.85 L 675.35,68.00 L 675.19,68.00 L 674.23,68.31 L 673.67,68.51 L 672.05,69.16 L 671.18,69.52 L 669.11,70.41 L 665.73,71.95 L 664.57,72.49 L 662.23,73.53 L 661.08,74.04 L 658.95,74.94 L 657.93,75.36 L 656.25,76.01 L 654.51,76.59 L 654.13,76.68 L 652.93,77.12 L 652.27,77.38 L 650.66,78.06 L 645.30,80.64 L 644.41,81.10 L 642.67,81.94 L 641.82,82.35 L 640.28,83.01 L 639.55,83.32 L 638.39,83.73 L 637.26,84.00 L 636.82,84.00 L 635.66,84.38 L 634.08,85.30 L 633.86,85.48 L 632.99,85.98 L 632.50,86.25 L 631.20,86.89 L 626.50,88.90 L 625.67,89.21 L 623.60,90.06 L 622.52,90.51 L 620.15,91.52 L 618.96,92.04 L 616.58,93.10 L 613.31,94.60 L 612.32,95.07 L 610.44,95.92 L 609.53,96.33 L 607.95,97.00 L 607.21,97.31 L 606.09,97.73 L 605.14,98.00 L 605.01,98.00 L 604.54,98.12 L 604.28,98.19 L 603.62,98.43 L 601.33,99.47 L 600.94,99.68 L 599.92,100.17 L 599.37,100.43 L 598.16,100.98 L 594.50,102.54 L 593.40,102.97 L 590.50,104.22 L 586.50,106.02 L 585.95,106.28 L 584.51,106.92 L 583.76,107.25 L 582.06,107.97 L 577.00,110.00 L 575.49,110.57 L 571.79,112.10 L 570.89,112.48 L 569.18,113.22 L 567.00,114.21 L 565.76,114.80 L 563.23,115.94 L 562.65,116.20 L 561.63,116.63 L 560.50,117.08 L 560.23,117.18 L 559.33,117.54 L 558.84,117.74 L 557.62,118.24 L 553.50,120.00 L 552.12,120.60 L 549.38,121.78 L 548.75,122.05 L 547.67,122.51 L 546.50,123.00 L 546.23,123.12 L 545.03,123.64 L 544.34,123.95 L 542.50,124.78 L 541.52,125.23 L 539.27,126.26 L 535.69,127.91 L 534.48,128.47 L 532.13,129.50 L 530.99,129.99 L 528.96,130.80 L 528.00,131.17 L 526.51,131.68 L 525.14,132.00 L 524.66,132.00 L 523.63,132.26 L 522.45,132.88 L 522.32,133.00 L 521.57,133.44 L 521.12,133.68 L 519.87,134.31 L 519.19,134.65 L 517.60,135.39 L 515.00,136.54 L 514.11,136.92 L 511.91,137.88 L 510.76,138.39 L 508.29,139.49 L 507.04,140.04 L 504.60,141.15 L 501.28,142.66 L 500.29,143.12 L 498.40,143.96 L 497.48,144.36 L 495.88,145.02 L 495.14,145.32 L 494.01,145.74 L 493.05,146.00 L 492.91,146.00 L 492.40,146.16 L 492.12,146.26 L 491.38,146.59 L 488.77,148.00 L 487.87,148.55 L 486.00,149.41 L 485.56,149.59 L 484.80,149.84 L 483.94,150.00 L 483.72,150.00 L 482.94,150.18 L 482.50,150.30 L 481.38,150.69 L 477.44,152.36 L 476.76,152.69 L 475.09,153.38 L 474.22,153.73 L 472.33,154.42 L 471.39,154.76 L 469.53,155.35 L 467.00,156.06 L 465.49,156.42 L 462.34,157.53 L 461.60,157.81 L 460.31,158.39 L 458.85,159.19 L 458.12,159.69 L 456.64,160.47 L 456.30,160.63 L 455.71,160.86 L 455.06,161.00 L 454.75,161.00 L 454.10,161.44 L 453.36,162.50 L 453.20,162.91 L 452.54,163.56 L 451.38,164.00 L 450.99,164.00 L 449.88,164.26 L 448.24,164.89 L 448.00,165.01 L 447.25,165.37 L 446.84,165.57 L 445.84,166.03 L 442.50,167.51 L 441.40,167.99 L 438.59,169.28 L 434.80,171.12 L 433.78,171.64 L 431.68,172.45 L 431.19,172.62 L 430.34,172.85 L 429.38,173.00 L 428.91,173.00 L 427.70,173.39 L 426.08,174.33 L 425.87,174.50 L 425.11,174.96 L 424.68,175.19 L 423.58,175.74 L 422.42,176.29 L 419.67,177.43 L 419.00,177.70 L 417.73,178.17 L 417.12,178.39 L 416.08,178.72 L 415.60,178.87 L 414.93,179.01 L 414.50,178.94 L 414.50,178.89 L 414.22,178.95 L 414.05,179.00 L 413.47,179.27 L 411.00,180.63 L 410.52,180.91 L 409.21,181.59 L 408.51,181.93 L 406.91,182.65 L 402.00,184.57 L 400.49,185.07 L 397.67,186.19 L 397.04,186.45 L 396.02,186.93 L 395.00,187.49 L 394.67,187.74 L 393.52,188.37 L 393.18,188.56 L 392.30,188.99 L 391.82,189.22 L 390.63,189.77 L 390.00,190.07 L 388.44,190.77 L 387.62,191.14 L 385.64,192.01 L 384.59,192.48 L 382.14,193.55 L 377.85,195.42 L 376.84,195.85 L 374.92,196.53 L 374.48,196.68 L 373.76,196.87 L 373.00,197.00 L 372.67,197.00 L 371.38,197.43 L 369.15,198.45 L 368.66,198.72 L 367.32,199.40 L 366.60,199.75 L 364.94,200.54 L 363.22,201.35 L 359.46,203.04 L 358.54,203.44 L 356.82,204.18 L 355.99,204.54 L 354.55,205.13 L 353.88,205.39 L 352.88,205.76 L 352.03,206.00 L 351.92,206.00 L 351.13,206.27 L 350.66,206.44 L 349.29,206.99 L 348.55,207.30 L 346.77,208.06 L 343.85,209.37 L 342.40,210.04 L 339.67,211.27 L 338.34,211.87 L 335.87,212.97 L 334.68,213.50 L 332.50,214.45 L 331.45,214.90 L 329.59,215.69 L 328.70,216.06 L 327.17,216.68 L 326.45,216.96 L 325.28,217.40 L 324.74,217.60 L 323.95,217.85 L 323.22,218.00 L 323.08,218.00 L 322.43,218.20 L 322.06,218.32 L 321.07,218.73 L 317.34,220.47 L 316.71,220.80 L 315.15,221.55 L 314.33,221.94 L 312.46,222.80 L 310.53,223.68 L 306.12,225.59 L 303.89,226.54 L 299.43,228.37 L 298.35,228.80 L 296.30,229.61 L 293.50,230.67 L 292.95,230.87 L 291.51,231.43 L 290.76,231.74 L 289.06,232.44 L 284.00,234.64 L 282.49,235.33 L 279.23,236.80 L 278.46,237.14 L 277.10,237.75 L 275.50,238.46 L 275.09,238.64 L 273.69,239.25 L 272.91,239.59 L 270.97,240.44 L 264.29,243.38 L 263.16,243.88 L 261.02,244.79 L 259.98,245.22 L 258.17,245.94 L 257.33,246.26 L 256.07,246.71 L 255.01,247.00 L 254.86,247.00 L 254.22,247.19 L 253.85,247.31 L 252.86,247.70 L 249.22,249.39 L 247.92,250.04 L 244.56,251.45 L 243.73,251.78 L 242.12,252.37 L 240.00,253.06 L 238.76,253.41 L 236.38,254.32 L 235.84,254.54 L 234.94,254.98 L 234.00,255.54 L 233.79,255.71 L 232.92,256.18 L 232.41,256.43 L 231.07,257.03 L 226.13,258.91 L 224.38,259.51 L 220.57,260.98 L 219.67,261.35 L 218.05,262.04 L 216.13,262.93 L 215.69,263.16 L 214.41,263.74 L 213.71,264.05 L 211.97,264.77 L 211.04,265.15 L 208.88,266.01 L 207.75,266.45 L 205.20,267.43 L 203.89,267.93 L 201.01,268.99 L 199.54,269.54 L 196.37,270.69 L 186.00,274.36 L 185.17,274.65 L 183.17,275.27 L 182.12,275.59 L 179.72,276.27 L 178.48,276.62 L 175.73,277.34 L 174.32,277.70 L 171.28,278.45 L 168.18,279.19 L 161.33,280.72 L 150.50,282.95 L 148.79,283.28 L 145.11,283.89 L 143.24,284.19 L 139.34,284.72 L 135.40,285.22 L 127.34,285.96 L 125.35,286.11 L 121.47,286.34 L 119.56,286.44 L 115.93,286.55 L 114.15,286.59 L 110.88,286.58 L 109.29,286.55 Z" fill="red"/>
</g>
</svg>